<?xml version="1.0" encoding="UTF-8"?>
<svg viewBox="0 0 180 165" version="1.1" xmlns="http://www.w3.org/2000/svg" xmlns:xlink="http://www.w3.org/1999/xlink">
    <title>Group</title>
    <g id="Landing-Page" stroke="none" stroke-width="1" fill="none" fill-rule="evenodd">
        <g id="nVisory-LLC_Final" transform="translate(-150.000000, 0.000000)">
            <g id="Group" transform="translate(150.000000, 0.000000)">
                <path d="M64.6208794,153.393 L64.6208794,132.235 C57.4498794,133.969 50.6588794,135.061 44.4158794,135.484 C50.0248794,142.581 56.8548794,148.672 64.6208794,153.393" id="Fill-12" fill="#E36A2A"></path>
                <path d="M142.971879,93.323 L142.971879,139.218 L142.246879,139.218 L115.685879,111.472 C112.981879,112.999 110.230879,114.49 107.424879,115.929 C98.0388794,120.741 88.7898794,124.673 79.9168794,127.734 L79.9168794,160.512 C87.4298794,163.013 95.4428794,164.421 103.796879,164.421 C145.561879,164.421 179.419879,130.563 179.419879,88.798 C179.419879,79.086 177.560879,69.817 174.222879,61.29 C166.991879,71.9 156.239879,82.963 142.971879,93.323" id="Fill-13" fill="#E36A2A"></path>
                <path d="M65.4068794,38.378 L107.979879,82.854 C105.028879,84.506 102.011879,86.112 98.9188794,87.652 C97.5388794,88.338 96.1638794,89.002 94.7928794,89.647 L79.9168794,74.107 L79.9168794,95.917 C74.6688794,97.873 69.5488794,99.508 64.6208794,100.812 L64.6208794,38.378 L65.4068794,38.378 Z M178.321879,19.054 C175.678879,10.125 167.460879,4.8 155.606879,3.002 C160.874879,5.263 164.493879,8.837 165.967879,13.748 C168.017879,20.574 165.648879,29.072 159.879879,38.149 C157.297879,35.287 154.520879,32.605 151.530879,30.167 C147.508879,16.27 142.971879,-1.42108547e-14 142.971879,-1.42108547e-14 L142.971879,57.797 C138.384879,62.051 133.233879,66.263 127.615879,70.336 L127.615879,17.167 C120.118879,14.648 112.144879,13.175 103.796879,13.175 C62.0308794,13.175 28.1728794,47.032 28.1728794,88.798 C28.1728794,94.052 28.7228794,99.173 29.7518794,104.118 C19.7558794,102.637 12.8748794,98.292 10.6898794,91.017 C9.03187941,85.493 10.2638794,78.873 13.8498794,71.738 C2.89987941,85.885 -2.20612059,99.547 0.89587941,110.029 C7.83987941,133.488 53.1878794,132.14 102.182879,107.018 C151.177879,81.896 185.265879,42.513 178.321879,19.054 L178.321879,19.054 Z" id="Fill-14" fill="#252E3D"></path>
            </g>
        </g>
    </g>
</svg>