<?xml version="1.0" encoding="UTF-8"?>
<svg viewBox="0 0 442 80" version="1.1" xmlns="http://www.w3.org/2000/svg" xmlns:xlink="http://www.w3.org/1999/xlink">
    <title>text-logo</title>
    <defs>
        <polygon id="path-1" points="0.06 0.181 70.14 0.181 70.14 77 0.06 77"></polygon>
    </defs>
    <g id="Landing-Page" stroke="none" stroke-width="1" fill="none" fill-rule="evenodd">
        <g id="Artboard" transform="translate(-39.000000, -183.000000)">
            <g id="text-logo" transform="translate(39.000000, 183.000000)">
                <g id="Group-2">
                    <g id="Group-3" transform="translate(41.482000, 1.172000)">
                        <mask id="mask-2" fill="white">
                            <use xlink:href="#path-1"></use>
                        </mask>
                        <g id="Clip-2"></g>
                        <polyline id="Fill-1" fill="#FFFFFF" mask="url(#mask-2)" points="70.14 0.181 35.396 77 34.603 77 0 0.181 12.561 0.181 34.977 51.131 57.484 0.181 70.14 0.181"></polyline>
                    </g>
                    <polygon id="Fill-4" fill="#FFFFFF" points="120 76.632 131.814 76.632 131.814 1.353 120 1.353"></polygon>
                    <path d="M7.87505838,78.533 L1.9095836e-14,78.533 L1.9095836e-14,28.353 L7.87505838,28.353 L31.9961742,64.9388963 L31.9961742,28.353 L39.8712326,28.353 L39.8712326,78.533 L31.9961742,78.533 L7.87505838,41.74595 L7.87505838,78.533 Z" id="Combined-Shape" fill="#FFFFFF"></path>
                    <path d="M141.954,63.415 L151.293,56.74 C154.656,62.622 160.915,65.985 168.154,65.985 C176.606,65.985 183.003,61.921 183.003,56.176 C183.003,49.219 173.102,45.018 164.323,41.233 C155.498,37.313 145.689,32.735 145.689,20.921 C145.689,8.592 156.386,7.10542736e-15 169.927,7.10542736e-15 C180.669,7.10542736e-15 188.701,5.184 191.782,13.449 L183.003,19.519 C180.669,14.429 175.485,11.581 170.022,11.581 C163.11,11.581 157.598,15.878 157.598,21.2 C157.598,27.085 164.559,29.186 173.709,33.109 C185.618,38.339 194.866,44.084 194.866,55.944 C194.866,69.301 183.284,77.894 168.013,77.894 C155.639,77.894 146.253,72.103 141.954,63.415" id="Fill-5" fill="#FFFFFF"></path>
                    <path d="M267.309,38.991 C267.309,24.097 255.121,11.955 240.269,11.955 C225.421,11.955 213.325,24.097 213.325,38.991 C213.325,53.797 225.421,65.89 240.269,65.89 C255.121,65.89 267.309,53.797 267.309,38.991 Z M201.416,39.086 C201.416,17.605 218.883,0.046 240.318,0.046 C261.705,0.046 279.264,17.605 279.264,39.086 C279.264,60.381 261.705,77.845 240.269,77.845 C218.883,77.845 201.416,60.381 201.416,39.086 L201.416,39.086 Z" id="Fill-6" fill="#FFFFFF"></path>
                    <path d="M313.793,37.687 C320.891,37.733 326.823,31.988 326.823,25.263 C326.823,18.26 320.8,13.076 313.793,13.076 L301.933,13.076 L301.933,37.687 L313.793,37.687 Z M331.493,76.632 L311.227,47.492 L301.979,47.492 L301.979,76.632 L290.165,76.632 L290.119,1.353 L313.515,1.353 C327.524,1.353 339.014,12.142 339.014,25.542 C339.014,35.255 332.754,43.71 324.116,46.512 L346.017,76.632 L331.493,76.632 L331.493,76.632 Z" id="Fill-7" fill="#FFFFFF"></path>
                    <polyline id="Fill-8" fill="#FFFFFF" points="364.387 44.457 339.403 1.353 352.711 1.353 370.224 31.336 387.783 1.353 401.091 1.353 376.106 44.457 376.106 76.632 364.387 76.632 364.387 44.457"></polyline>
                </g>
                <polyline id="Fill-9" fill="#FFFFFF" points="435.529 55.328 440.729 55.328 440.729 75.386 407.464 75.386 407.464 70.167 435.529 70.167 435.529 55.328"></polyline>
                <polyline id="Fill-10" fill="#FFFFFF" points="435.529 31.11 440.729 31.11 440.729 51.168 407.464 51.168 407.464 45.948 435.529 45.948 435.529 31.11"></polyline>
                <path d="M424.117,29.942 C414.748,29.942 406.885,22.12 406.885,12.772 C406.948,8.459 408.785,4.476 411.962,1.216 L416.069,4.249 C413.738,6.582 412.19,9.615 412.19,12.875 C412.19,18.901 417.472,24.659 424.137,24.659 C430.844,24.659 436.024,18.818 436.024,12.855 C436.024,9.449 434.331,6.519 432.062,4.229 L436.273,1.216 C439.098,4.085 441.265,7.737 441.265,12.689 C441.265,22.12 433.507,29.942 424.117,29.942" id="Fill-11" fill="#FFFFFF"></path>
            </g>
        </g>
    </g>
</svg>