<?xml version="1.0" standalone="no"?>
<!DOCTYPE svg PUBLIC "-//W3C//DTD SVG 20010904//EN"
 "http://www.w3.org/TR/2001/REC-SVG-20010904/DTD/svg10.dtd">
<svg version="1.0" xmlns="http://www.w3.org/2000/svg"
 width="720.000000pt" height="720.000000pt" viewBox="0 0 720.000000 720.000000"
 preserveAspectRatio="xMidYMid meet">
<metadata>
Created by potrace 1.11, written by Peter Selinger 2001-2013
</metadata>
<g transform="translate(0.000000,720.000000) scale(0.100000,-0.100000)"
fill="#000000" stroke="none">
<path d="M5710 5738 l0 -1153 -29 -25 c-16 -14 -85 -73 -152 -131 -68 -58
-189 -156 -269 -218 l-145 -111 -3 1060 -2 1059 -83 25 c-460 139 -905 170
-1362 95 -769 -125 -1463 -544 -1932 -1166 -504 -670 -710 -1515 -568 -2334 9
-50 15 -92 13 -94 -6 -5 -175 34 -238 55 -36 11 -108 42 -160 68 -161 78 -298
234 -345 389 -56 185 -32 402 71 653 20 47 38 92 42 100 13 34 -30 -15 -96
-109 -225 -315 -380 -642 -433 -912 -26 -137 -26 -334 1 -446 136 -569 807
-819 1825 -682 1678 226 3809 1461 4805 2784 269 357 437 695 500 1005 18 88
21 129 17 255 -5 167 -18 227 -73 345 -104 220 -312 383 -604 474 -125 38
-230 61 -252 54 -7 -3 12 -17 42 -33 176 -88 287 -211 347 -382 25 -71 27 -91
27 -223 0 -127 -3 -157 -27 -243 -15 -54 -39 -128 -53 -165 -29 -75 -136 -285
-163 -321 l-17 -23 -100 99 c-54 55 -129 126 -165 159 l-67 59 -120 425 c-66
234 -141 500 -167 593 -26 92 -52 167 -56 167 -5 0 -9 -515 -9 -1152z m-3048
-426 c23 -26 404 -425 846 -886 l803 -839 -58 -32 c-113 -62 -269 -142 -365
-187 l-96 -46 -294 308 c-161 170 -296 309 -300 309 -4 1 -9 -195 -10 -436
l-3 -436 -90 -34 c-98 -36 -473 -153 -493 -153 -9 0 -12 265 -12 1240 0 1059
2 1240 14 1240 8 0 34 -22 58 -48z"/>
<path d="M6951 4433 c-20 -38 -175 -239 -279 -363 -203 -240 -567 -588 -869
-830 l-93 -74 0 -914 c0 -767 -2 -913 -14 -910 -7 2 -246 246 -530 543 -284
297 -522 544 -529 549 -10 6 -67 -20 -183 -82 -391 -210 -789 -388 -1219 -543
l-40 -15 0 -659 0 -659 90 -28 c410 -127 891 -160 1340 -92 420 64 858 237
1224 483 298 201 611 514 812 812 530 788 663 1771 360 2664 -44 130 -54 147
-70 118z"/>
<path d="M2539 1606 c-18 -18 -512 -100 -671 -112 -54 -4 -88 -11 -88 -18 0
-16 172 -207 286 -316 142 -137 397 -335 502 -389 l22 -12 0 426 0 425 -23 0
c-13 0 -26 -2 -28 -4z"/>
</g>
</svg>
